<svg viewBox="0 0 1040 760" xmlns="http://www.w3.org/2000/svg" font-family="-apple-system, Segoe UI, Roboto, sans-serif">
<title>HAS and HASF architecture tied around the self-improving BRAIN convergence loop</title>
<defs>
<radialGradient id="brainGlow" cx="50%" cy="50%" r="50%">
<stop offset="0%" stop-color="#5eead4" stop-opacity="0.55"/>
<stop offset="45%" stop-color="#22d3ee" stop-opacity="0.18"/>
<stop offset="100%" stop-color="#22d3ee" stop-opacity="0"/>
</radialGradient>
<radialGradient id="brainCore" cx="50%" cy="40%" r="65%">
<stop offset="0%" stop-color="#a7f3d0"/>
<stop offset="55%" stop-color="#2dd4bf"/>
<stop offset="100%" stop-color="#0e7490"/>
</radialGradient>
<linearGradient id="hasGrad" x1="0" y1="0" x2="0" y2="1">
<stop offset="0%" stop-color="#1e293b"/><stop offset="100%" stop-color="#0f172a"/>
</linearGradient>
<linearGradient id="hasfGrad" x1="0" y1="0" x2="0" y2="1">
<stop offset="0%" stop-color="#1e1b4b"/><stop offset="100%" stop-color="#0f0a2e"/>
</linearGradient>
<filter id="soft" x="-40%" y="-40%" width="180%" height="180%"><feGaussianBlur stdDeviation="6"/></filter>
<marker id="arw" viewBox="0 0 10 10" refX="8" refY="5" markerWidth="7" markerHeight="7" orient="auto-start-reverse"><path d="M0,0 L10,5 L0,10 z" fill="#64748b"/></marker>
<marker id="arwC" viewBox="0 0 10 10" refX="8" refY="5" markerWidth="7" markerHeight="7" orient="auto-start-reverse"><path d="M0,0 L10,5 L0,10 z" fill="#2dd4bf"/></marker>
</defs>
<rect x="0" y="0" width="1040" height="760" rx="20" fill="#0b1220"/>
<text x="40" y="52" fill="#e2e8f0" font-size="26" font-weight="700">HAS × HASF — tied around the BRAIN</text>
<text x="40" y="78" fill="#64748b" font-size="14">Self-improving prompt-convergence core · evidence-disciplined · model-portable</text>
<rect x="430" y="104" width="180" height="52" rx="12" fill="#111827" stroke="#f59e0b" stroke-width="1.5"/>
<text x="520" y="128" text-anchor="middle" fill="#fbbf24" font-size="15" font-weight="700">◆ Michael — Founder Gate</text>
<text x="520" y="146" text-anchor="middle" fill="#94a3b8" font-size="11">Approves T3 · release GO · keys</text>
<line x1="520" y1="156" x2="520" y2="212" stroke="#64748b" stroke-width="2" stroke-dasharray="4 4" marker-end="url(#arw)"/>
<rect x="40" y="250" width="210" height="230" rx="16" fill="url(#hasGrad)" stroke="#334155" stroke-width="1.5"/>
<text x="145" y="284" text-anchor="middle" fill="#7dd3fc" font-size="18" font-weight="700">HAS</text>
<text x="145" y="304" text-anchor="middle" fill="#94a3b8" font-size="11">Command &amp; Control · 24/7</text>
<line x1="64" y1="318" x2="226" y2="318" stroke="#1e293b"/>
<text x="64" y="344" fill="#cbd5e1" font-size="12">▸ Runtime-truth &amp; heartbeats</text>
<text x="64" y="372" fill="#cbd5e1" font-size="12">▸ Approval &amp; TTL holds</text>
<text x="64" y="400" fill="#cbd5e1" font-size="12">▸ Fail-closed registry gate</text>
<text x="64" y="428" fill="#cbd5e1" font-size="12">▸ Go/No-Go readiness</text>
<text x="64" y="456" fill="#5eead4" font-size="12" font-weight="600">▸ No fake-green. Ever.</text>
<line x1="250" y1="365" x2="352" y2="365" stroke="#64748b" stroke-width="2" marker-end="url(#arw)"/>
<text x="300" y="356" text-anchor="middle" fill="#64748b" font-size="10">governs</text>
<rect x="790" y="250" width="210" height="230" rx="16" fill="url(#hasfGrad)" stroke="#3730a3" stroke-width="1.5"/>
<text x="895" y="284" text-anchor="middle" fill="#c4b5fd" font-size="18" font-weight="700">HASF</text>
<text x="895" y="304" text-anchor="middle" fill="#a5b4fc" font-size="11">Product Factory · 24/7</text>
<line x1="814" y1="318" x2="976" y2="318" stroke="#312e81"/>
<text x="814" y="344" fill="#ddd6fe" font-size="12">▸ HELM autonomy runner</text>
<text x="814" y="372" fill="#ddd6fe" font-size="12">▸ AG execution adapters</text>
<text x="814" y="400" fill="#ddd6fe" font-size="12">▸ Mission &amp; product pipeline</text>
<text x="814" y="428" fill="#ddd6fe" font-size="12">▸ Monetizable apps</text>
<text x="814" y="456" fill="#fca5a5" font-size="12" font-weight="600">▸ Ships only what's VERIFIED</text>
<line x1="688" y1="365" x2="790" y2="365" stroke="#2dd4bf" stroke-width="2" marker-end="url(#arwC)"/>
<text x="740" y="356" text-anchor="middle" fill="#5eead4" font-size="10">powers</text>
<circle cx="520" cy="365" r="185" fill="url(#brainGlow)"/>
<circle cx="520" cy="365" r="150" fill="none" stroke="#334155" stroke-width="1" stroke-dasharray="2 6"/>
<circle cx="520" cy="365" r="176" fill="none" stroke="#22d3ee" stroke-width="1" stroke-opacity="0.35"/>
<text x="520" y="200" text-anchor="middle" fill="#22d3ee" font-size="11" letter-spacing="2" font-weight="600">EVIDENCE DISCIPLINE · FAIL-CLOSED</text>
<circle cx="520" cy="365" r="74" fill="url(#brainCore)" filter="url(#soft)" opacity="0.9"/>
<circle cx="520" cy="365" r="66" fill="#0b1220" stroke="#2dd4bf" stroke-width="2"/>
<text x="520" y="356" text-anchor="middle" fill="#5eead4" font-size="20" font-weight="800">BRAIN</text>
<text x="520" y="378" text-anchor="middle" fill="#e2e8f0" font-size="12">427 genes · 30 classes</text>
<text x="520" y="396" text-anchor="middle" fill="#64748b" font-size="10">best prompt per task</text>
<g font-size="11.5" font-weight="600">
<g><circle cx="520" cy="215" r="7" fill="#0b1220" stroke="#2dd4bf" stroke-width="2"/><text x="520" y="198" text-anchor="middle" fill="#e2e8f0">1 Harvest</text></g>
<g><circle cx="637" cy="271" r="7" fill="#0b1220" stroke="#2dd4bf" stroke-width="2"/><text x="686" y="258" text-anchor="middle" fill="#e2e8f0">2 Generate</text></g>
<g><circle cx="666" cy="398" r="7" fill="#0b1220" stroke="#2dd4bf" stroke-width="2"/><text x="700" y="402" text-anchor="middle" fill="#e2e8f0">3 Adversary</text></g>
<g><circle cx="585" cy="500" r="7" fill="#0b1220" stroke="#2dd4bf" stroke-width="2"/><text x="600" y="522" text-anchor="middle" fill="#e2e8f0">4 Judge</text></g>
<g><circle cx="455" cy="500" r="7" fill="#0b1220" stroke="#2dd4bf" stroke-width="2"/><text x="440" y="522" text-anchor="middle" fill="#e2e8f0">5 Promote</text></g>
<g><circle cx="374" cy="398" r="7" fill="#0b1220" stroke="#2dd4bf" stroke-width="2"/><text x="338" y="402" text-anchor="middle" fill="#e2e8f0">6 Learn</text></g>
<g><circle cx="403" cy="271" r="7" fill="#0b1220" stroke="#2dd4bf" stroke-width="2"/><text x="356" y="258" text-anchor="middle" fill="#e2e8f0">7 Converge</text></g>
</g>
<g fill="none" stroke="#2dd4bf" stroke-width="2" opacity="0.8" marker-end="url(#arwC)">
<path d="M528,216 A150,150 0 0 1 632,266"/>
<path d="M641,278 A150,150 0 0 1 667,390"/>
<path d="M664,406 A150,150 0 0 1 592,496"/>
<path d="M577,502 A150,150 0 0 1 463,502"/>
<path d="M448,496 A150,150 0 0 1 376,406"/>
<path d="M373,390 A150,150 0 0 1 399,278"/>
<path d="M408,264 A150,150 0 0 1 512,216"/>
</g>
<rect x="250" y="620" width="540" height="72" rx="14" fill="#0f172a" stroke="#334155" stroke-width="1.5"/>
<text x="520" y="650" text-anchor="middle" fill="#94a3b8" font-size="13" font-weight="700">EVIDENCE LEDGER · RELAY MESH</text>
<text x="520" y="672" text-anchor="middle" fill="#64748b" font-size="11">hoch-relay-001 · Tailscale-private · tamper-evident · hash + timestamp every claim</text>
<path d="M895,480 C895,580 760,620 610,635" fill="none" stroke="#64748b" stroke-width="2" stroke-dasharray="5 4" marker-end="url(#arw)"/>
<text x="800" y="600" fill="#64748b" font-size="10">produces → ledger</text>
<path d="M300,635 C180,620 145,560 145,482" fill="none" stroke="#64748b" stroke-width="2" stroke-dasharray="5 4" marker-end="url(#arw)"/>
<text x="150" y="560" fill="#64748b" font-size="10">audited by HAS</text>
<line x1="520" y1="620" x2="520" y2="535" stroke="#2dd4bf" stroke-width="2" stroke-dasharray="4 4" marker-end="url(#arwC)"/>
<text x="548" y="580" fill="#5eead4" font-size="10">grounds the brain</text>
<g font-size="10.5">
<circle cx="60" cy="712" r="5" fill="#2dd4bf"/><text x="72" y="716" fill="#94a3b8">convergence / verified flow</text>
<line x1="270" y1="712" x2="292" y2="712" stroke="#64748b" stroke-width="2" stroke-dasharray="5 4"/><text x="300" y="716" fill="#94a3b8">governance / evidence flow</text>
<text x="520" y="716" fill="#475569">v1 prototype · not yet wired into live build</text>
</g>
</svg>
